# Blender 3.4.1
# www.blender.org
mtllib fnaf.mtl
o Cube.001
v 0.004604 -0.093600 -0.033364
v 0.002318 -0.096240 -0.033684
v 0.003930 -0.095357 -0.033552
v 0.004604 -0.081364 -0.045600
v 0.002318 -0.081804 -0.048120
v 0.003908 -0.081543 -0.047304
v 0.004604 -0.092643 -0.038174
v 0.002318 -0.095141 -0.039208
v 0.003908 -0.094256 -0.038842
v 0.004604 -0.090052 -0.042052
v 0.002318 -0.092012 -0.043892
v 0.003908 -0.091289 -0.043282
v 0.004604 -0.086175 -0.044643
v 0.002318 -0.087329 -0.047021
v 0.003908 -0.086849 -0.046249
v 0.004604 0.081363 -0.045600
v 0.002318 0.081804 -0.048120
v 0.003908 0.081542 -0.047304
v 0.004604 0.093600 -0.033364
v 0.002318 0.096240 -0.033684
v 0.003930 0.095356 -0.033552
v 0.004604 0.086174 -0.044643
v 0.002318 0.087328 -0.047021
v 0.003908 0.086849 -0.046249
v 0.004604 0.090052 -0.042052
v 0.002318 0.092012 -0.043892
v 0.003908 0.091289 -0.043282
v 0.004604 0.092643 -0.038174
v 0.002318 0.095141 -0.039208
v 0.003908 0.094255 -0.038842
v 0.004604 -0.081364 0.045600
v 0.002318 -0.081804 0.048120
v 0.003908 -0.081543 0.047304
v 0.004604 -0.093600 0.033364
v 0.002318 -0.096240 0.033684
v 0.003930 -0.095357 0.033552
v 0.004604 -0.086175 0.044643
v 0.002318 -0.087329 0.047021
v 0.003908 -0.086849 0.046249
v 0.004604 -0.090052 0.042052
v 0.002318 -0.092012 0.043892
v 0.003908 -0.091289 0.043282
v 0.004604 -0.092643 0.038174
v 0.002318 -0.095141 0.039208
v 0.003908 -0.094256 0.038842
v 0.004604 0.093600 0.033364
v 0.002318 0.096240 0.033684
v 0.003930 0.095356 0.033552
v 0.004604 0.081363 0.045600
v 0.002318 0.081804 0.048120
v 0.003908 0.081542 0.047304
v 0.004604 0.092643 0.038174
v 0.002318 0.095141 0.039208
v 0.003908 0.094255 0.038842
v 0.004604 0.090052 0.042052
v 0.002318 0.092012 0.043892
v 0.003908 0.091289 0.043282
v 0.004604 0.086174 0.044643
v 0.002318 0.087328 0.047021
v 0.003908 0.086849 0.046249
v -0.034029 -0.096227 -0.033669
v -0.034029 -0.095129 -0.039191
v -0.034029 -0.096227 0.033669
v -0.034029 -0.087317 -0.047000
v -0.034029 -0.081793 -0.048098
v -0.034029 0.081793 -0.048098
v -0.034029 -0.092000 -0.043872
v -0.034029 0.087316 -0.047000
v -0.034029 0.096227 -0.033669
v -0.034029 0.095128 -0.039191
v -0.034029 0.096227 0.033669
v -0.034029 0.091999 -0.043872
v -0.034029 -0.087317 0.047000
v -0.034029 -0.081793 0.048098
v -0.034029 0.081793 0.048098
v -0.034029 -0.095129 0.039191
v -0.034029 -0.092000 0.043872
v -0.034029 0.095128 0.039191
v -0.034029 0.087316 0.047000
v -0.034029 0.091999 0.043872
v 0.009273 0.025737 -0.017634
v 0.009273 0.030366 -0.022262
v 0.013901 0.030366 -0.017634
v 0.009273 0.027093 -0.020907
v 0.011945 0.027694 -0.020306
v 0.012546 0.030366 -0.020907
v 0.012546 0.027093 -0.017634
v 0.009273 0.065633 -0.022262
v 0.009273 0.070262 -0.017634
v 0.013901 0.065633 -0.017634
v 0.009273 0.068906 -0.020907
v 0.011945 0.068306 -0.020306
v 0.012546 0.068906 -0.017634
v 0.012546 0.065633 -0.020907
v 0.009273 0.025737 0.017634
v 0.013901 0.030366 0.017634
v 0.009273 0.030366 0.022262
v 0.012546 0.027093 0.017634
v 0.011945 0.027694 0.020306
v 0.012546 0.030366 0.020907
v 0.009273 0.027093 0.020907
v 0.009273 0.070262 0.017634
v 0.009273 0.065633 0.022262
v 0.013901 0.065633 0.017634
v 0.009273 0.068906 0.020907
v 0.011945 0.068306 0.020306
v 0.012546 0.065633 0.020907
v 0.012546 0.068906 0.017634
v 0.009273 -0.070263 -0.017634
v 0.009273 -0.065634 -0.022262
v 0.013901 -0.065634 -0.017634
v 0.009273 -0.068907 -0.020907
v 0.011945 -0.068306 -0.020306
v 0.012546 -0.065634 -0.020907
v 0.012546 -0.068907 -0.017634
v 0.009273 -0.030367 -0.022262
v 0.009273 -0.025738 -0.017634
v 0.013901 -0.030367 -0.017634
v 0.009273 -0.027094 -0.020907
v 0.011945 -0.027694 -0.020306
v 0.012546 -0.027094 -0.017634
v 0.012546 -0.030367 -0.020907
v 0.009273 -0.070263 0.017634
v 0.013901 -0.065634 0.017634
v 0.009273 -0.065634 0.022262
v 0.012546 -0.068907 0.017634
v 0.011945 -0.068306 0.020306
v 0.012546 -0.065634 0.020907
v 0.009273 -0.068907 0.020907
v 0.009273 -0.025738 0.017634
v 0.009273 -0.030367 0.022262
v 0.013901 -0.030367 0.017634
v 0.009273 -0.027094 0.020907
v 0.011945 -0.027694 0.020306
v 0.012546 -0.030367 0.020907
v 0.012546 -0.027094 0.017634
v 0.009404 0.029398 0.024000
v 0.009404 0.024000 0.018602
v 0.009404 0.026699 0.023277
v 0.009404 0.024723 0.021301
v 0.009404 0.024000 -0.018602
v 0.009404 0.029398 -0.024000
v 0.009404 0.024723 -0.021301
v 0.009404 0.026699 -0.023277
v 0.009404 0.066601 -0.024000
v 0.009404 0.072000 -0.018602
v 0.009404 0.069301 -0.023277
v 0.009404 0.071276 -0.021301
v 0.009404 0.072000 0.018602
v 0.009404 0.066601 0.024000
v 0.009404 0.071276 0.021301
v 0.009404 0.069301 0.023277
v 0.009404 -0.066602 0.024000
v 0.009404 -0.072000 0.018602
v 0.009404 -0.069301 0.023277
v 0.009404 -0.071277 0.021301
v 0.009404 -0.072000 -0.018602
v 0.009404 -0.066602 -0.024000
v 0.009404 -0.071277 -0.021301
v 0.009404 -0.069301 -0.023277
v 0.009404 -0.029399 -0.024000
v 0.009404 -0.024000 -0.018602
v 0.009404 -0.026699 -0.023277
v 0.009404 -0.024724 -0.021301
v 0.009404 -0.024000 0.018602
v 0.009404 -0.029399 0.024000
v 0.009404 -0.024724 0.021301
v 0.009404 -0.026699 0.023277
v -0.014596 0.024000 0.018602
v -0.014596 0.024723 0.021301
v -0.014596 0.026699 0.023277
v -0.014596 0.029398 0.024000
v -0.014596 0.072000 0.018602
v -0.014596 0.071276 0.021301
v -0.014596 0.069301 0.023277
v -0.014596 0.066601 0.024000
v -0.014596 0.024000 -0.018602
v -0.014596 0.024723 -0.021301
v -0.014596 0.026699 -0.023277
v -0.014596 0.029398 -0.024000
v -0.014596 0.072000 -0.018602
v -0.014596 0.071276 -0.021301
v -0.014596 0.069301 -0.023277
v -0.014596 0.066601 -0.024000
v -0.014596 -0.072000 0.018602
v -0.014596 -0.071277 0.021301
v -0.014596 -0.069301 0.023277
v -0.014596 -0.066602 0.024000
v -0.014596 -0.024000 0.018602
v -0.014596 -0.024724 0.021301
v -0.014596 -0.026699 0.023277
v -0.014596 -0.029399 0.024000
v -0.014596 -0.072000 -0.018602
v -0.014596 -0.071277 -0.021301
v -0.014596 -0.069301 -0.023277
v -0.014596 -0.066602 -0.024000
v -0.014596 -0.024000 -0.018602
v -0.014596 -0.024724 -0.021301
v -0.014596 -0.026699 -0.023277
v -0.014596 -0.029399 -0.024000
vn 1.0000 -0.0000 -0.0000
vn -0.0000 1.0000 -0.0000
vn -0.0000 -0.0000 -1.0000
vn -0.0001 -0.0000 -1.0000
vn -0.0006 0.7071 -0.7071
vn -0.0006 0.7071 -0.7072
vn -0.0007 0.3827 -0.9239
vn -0.0007 0.3826 -0.9239
vn -0.0004 -1.0000 -0.0000
vn -0.0005 -0.9236 0.3834
vn -0.0005 -0.9239 0.3827
vn -0.0006 -0.7071 0.7071
vn -0.0006 -0.7071 0.7072
vn -0.0007 -0.3827 0.9239
vn -0.0007 -0.3826 0.9239
vn -0.0006 -0.0000 -1.0000
vn -0.0004 1.0000 -0.0000
vn -0.0003 1.0000 -0.0000
vn -0.0006 -0.0000 1.0000
vn -0.0005 0.9239 -0.3827
vn 0.7545 -0.6058 0.2524
vn 0.7554 -0.6553 -0.0000
vn 0.7513 -0.4666 0.4667
vn 0.7465 -0.2538 0.6151
vn 0.7403 -0.0000 0.6722
vn 0.7554 0.6553 -0.0000
vn 0.7545 0.6058 0.2524
vn -0.0005 0.9239 0.3827
vn 0.7513 0.4666 0.4667
vn -0.0006 0.7070 0.7072
vn 0.7465 0.2538 0.6151
vn -0.0007 0.3826 0.9239
vn 0.7545 -0.6058 -0.2524
vn -0.0005 -0.9239 -0.3827
vn 0.7513 -0.4666 -0.4667
vn -0.0006 -0.7070 -0.7072
vn 0.7465 -0.2538 -0.6151
vn -0.0007 -0.3826 -0.9239
vn 0.7403 -0.0000 -0.6722
vn 0.7545 0.6058 -0.2524
vn 0.7513 0.4666 -0.4667
vn 0.7465 0.2538 -0.6151
vn -0.0006 -0.7071 -0.7071
vn -0.0006 0.7071 0.7071
vn 0.3827 -0.9239 -0.0000
vn 0.3544 -0.6612 -0.6612
vn 0.5773 -0.5774 -0.5774
vn 0.7071 -0.7071 -0.0000
vn 0.3827 -0.0000 -0.9239
vn 0.7071 -0.0000 -0.7071
vn 0.3544 0.6612 -0.6612
vn 0.5774 0.5773 -0.5774
vn 0.3827 0.9239 -0.0000
vn 0.7072 0.7071 -0.0000
vn 0.5773 -0.5774 0.5773
vn 0.3544 -0.6612 0.6612
vn 0.7071 -0.0000 0.7071
vn 0.3827 -0.0000 0.9239
vn 0.3544 0.6612 0.6612
vn 0.5774 0.5773 0.5774
vn 0.7071 0.7071 -0.0000
vn 0.3543 -0.6612 -0.6612
vn -0.0000 -1.0000 -0.0000
vn -0.0000 -0.8660 0.5000
vn -0.0000 -0.5000 0.8660
vn -0.0000 -0.0000 1.0000
vn 0.0001 -0.0000 1.0000
vn -0.0000 0.8660 -0.5000
vn -0.0000 0.5000 -0.8660
vn -0.0000 -0.5000 -0.8660
vn -0.0000 -0.8660 -0.5000
vn -0.0000 0.5000 0.8660
vn -0.0001 -0.0000 1.0000
vn -0.0000 0.8660 0.5000
vt 0.453237 0.109941
vt 0.455719 0.096562
vt 0.454266 0.102726
vt 0.500508 0.157147
vt 0.514733 0.154541
vt 0.508356 0.156048
vt 0.471044 0.114215
vt 0.476851 0.103064
vt 0.473983 0.108120
vt 0.484839 0.123744
vt 0.493826 0.115093
vt 0.489790 0.118937
vt 0.494810 0.138091
vt 0.506533 0.131610
vt 0.501483 0.134858
vt 0.495042 0.839317
vt 0.508147 0.844456
vt 0.502433 0.840472
vt 0.447867 0.883493
vt 0.452116 0.896382
vt 0.448944 0.890726
vt 0.489976 0.856131
vt 0.501075 0.862485
vt 0.496115 0.859141
vt 0.479788 0.869510
vt 0.488347 0.878521
vt 0.484577 0.874325
vt 0.465480 0.879055
vt 0.471245 0.890379
vt 0.468375 0.885185
vt 0.128038 0.156417
vt 0.113926 0.153728
vt 0.120279 0.155263
vt 0.176676 0.109660
vt 0.174367 0.096056
vt 0.175786 0.102412
vt 0.133619 0.137770
vt 0.122105 0.131106
vt 0.127095 0.134543
vt 0.143692 0.123904
vt 0.134705 0.114533
vt 0.138571 0.119073
vt 0.158519 0.113378
vt 0.151993 0.100433
vt 0.155570 0.106881
vt 0.168062 0.883970
vt 0.163755 0.896907
vt 0.166951 0.891126
vt 0.122715 0.840174
vt 0.109561 0.845060
vt 0.115356 0.841233
vt 0.150944 0.879462
vt 0.145134 0.890545
vt 0.148025 0.885404
vt 0.137169 0.869941
vt 0.128646 0.878673
vt 0.132423 0.874568
vt 0.127438 0.856751
vt 0.116423 0.862863
vt 0.121387 0.859625
vt 0.477021 0.006196
vt 0.521560 0.024231
vt 0.154141 0.005473
vt 0.588867 0.089249
vt 0.607773 0.132552
vt 0.602599 0.862767
vt 0.559556 0.052476
vt 0.583119 0.906015
vt 0.469451 0.988300
vt 0.514416 0.970732
vt 0.146262 0.988161
vt 0.553099 0.942742
vt 0.040134 0.087697
vt 0.020533 0.131149
vt 0.015262 0.862167
vt 0.108989 0.022915
vt 0.070226 0.050957
vt 0.101726 0.970211
vt 0.034212 0.905300
vt 0.063628 0.942028
vt 0.874323 0.259784
vt 0.895257 0.280718
vt 0.874323 0.280718
vt 0.889125 0.265916
vt 0.886409 0.268632
vt 0.889125 0.280718
vt 0.874323 0.265916
vt 0.895257 0.440214
vt 0.874323 0.461148
vt 0.874323 0.440214
vt 0.889125 0.455016
vt 0.886409 0.452300
vt 0.874323 0.455016
vt 0.889125 0.440214
vt 0.714827 0.259784
vt 0.714827 0.280718
vt 0.693893 0.280718
vt 0.714827 0.265916
vt 0.702741 0.268632
vt 0.700024 0.280718
vt 0.700024 0.265916
vt 0.714827 0.461148
vt 0.693893 0.440214
vt 0.714827 0.440214
vt 0.700024 0.455016
vt 0.702741 0.452300
vt 0.700024 0.440214
vt 0.714827 0.455016
vt 0.874323 0.009784
vt 0.895257 0.030718
vt 0.874323 0.030718
vt 0.889125 0.015916
vt 0.886409 0.018632
vt 0.889125 0.030718
vt 0.874323 0.015916
vt 0.895257 0.190214
vt 0.874323 0.211148
vt 0.874323 0.190214
vt 0.889125 0.205016
vt 0.886409 0.202300
vt 0.874323 0.205016
vt 0.889125 0.190214
vt 0.714827 0.009784
vt 0.714827 0.030718
vt 0.693893 0.030718
vt 0.714827 0.015916
vt 0.702741 0.018632
vt 0.700024 0.030718
vt 0.700024 0.015916
vt 0.714827 0.211148
vt 0.693893 0.190214
vt 0.714827 0.190214
vt 0.700024 0.205016
vt 0.702741 0.202300
vt 0.700024 0.190214
vt 0.714827 0.205016
vt 0.811127 0.607655
vt 0.796875 0.621907
vt 0.796875 0.593403
vt 0.804001 0.605746
vt 0.796875 0.614781
vt 0.798784 0.600529
vt 0.796875 0.600529
vt 0.796875 0.495187
vt 0.811127 0.480935
vt 0.796875 0.973563
vt 0.798785 0.488061
vt 0.796875 0.488061
vt 0.804001 0.482844
vt 0.796875 0.987815
vt 0.796875 0.480935
vt 0.909343 0.480935
vt 0.796875 0.875347
vt 0.923595 0.495187
vt 0.796875 0.846843
vt 0.916469 0.482844
vt 0.796875 0.868221
vt 0.921686 0.488061
vt 0.796875 0.853969
vt 0.923595 0.593403
vt 0.796875 0.748627
vt 0.909343 0.607655
vt 0.796875 0.720123
vt 0.921686 0.600529
vt 0.796875 0.741501
vt 0.916469 0.605746
vt 0.796875 0.727249
vt 0.811127 0.607655
vt 0.796875 0.621907
vt 0.796875 0.593403
vt 0.804001 0.605746
vt 0.796875 0.614781
vt 0.798785 0.600529
vt 0.796875 0.600529
vt 0.796875 0.495187
vt 0.811127 0.480935
vt 0.796875 0.973563
vt 0.798785 0.488061
vt 0.796875 0.488061
vt 0.804001 0.482844
vt 0.796875 0.987815
vt 0.796875 0.480935
vt 0.909343 0.480935
vt 0.796875 0.875347
vt 0.923595 0.495187
vt 0.796875 0.846843
vt 0.916469 0.482844
vt 0.796875 0.868221
vt 0.921686 0.488061
vt 0.796875 0.853969
vt 0.923595 0.593403
vt 0.796875 0.748627
vt 0.909343 0.607655
vt 0.796875 0.720123
vt 0.921686 0.600529
vt 0.796875 0.741501
vt 0.916469 0.605746
vt 0.796875 0.727249
vt 0.733515 0.593403
vt 0.733515 0.600529
vt 0.733515 0.614781
vt 0.733515 0.621907
vt 0.733515 0.748627
vt 0.733515 0.741501
vt 0.733515 0.727249
vt 0.733515 0.720123
vt 0.733515 0.495187
vt 0.733515 0.488061
vt 0.733515 0.987815
vt 0.733515 0.480935
vt 0.733515 0.973563
vt 0.733515 0.846843
vt 0.733515 0.853969
vt 0.733515 0.868221
vt 0.733515 0.875347
vt 0.733515 0.593403
vt 0.733515 0.600529
vt 0.733515 0.614781
vt 0.733515 0.621907
vt 0.733515 0.748627
vt 0.733515 0.741501
vt 0.733515 0.727249
vt 0.733515 0.720123
vt 0.733515 0.495187
vt 0.733515 0.488061
vt 0.733515 0.987815
vt 0.733515 0.480935
vt 0.733515 0.973563
vt 0.733515 0.846843
vt 0.733515 0.853969
vt 0.733515 0.868221
vt 0.733515 0.875347
s 1
usemtl Material.001
f 137/137/1 139/140/1 140/142/1 138/139/1 141/144/1 143/147/1 144/149/1 142/145/1 145/152/1 147/156/1 148/158/1 146/154/1 149/160/1 151/164/1 152/166/1 150/162/1
f 173/203/2 149/161/2 146/155/2 181/212/2
f 180/211/3 184/215/3 145/153/3 142/146/4
f 72/72/5 26/26/6 23/23/7 68/68/8
f 63/63/9 35/35/9 44/44/10 76/76/11
f 77/77/12 41/41/13 38/38/14 73/73/15
f 76/76/11 44/44/10 41/41/13 77/77/12
f 68/68/8 23/23/7 17/17/16 66/66/16
f 65/65/16 66/66/16 17/17/16 5/5/16
f 71/71/17 47/47/18 20/20/17 69/69/17
f 73/73/15 38/38/14 32/32/19 74/74/19
f 70/70/20 29/29/20 26/26/6 72/72/5
f 69/69/17 20/20/17 29/29/20 70/70/20
f 34/34/1 43/43/1 45/45/21 36/36/22
f 36/36/22 45/45/21 44/44/10 35/35/9
f 43/43/1 40/40/1 42/42/23 45/45/21
f 45/45/21 42/42/23 41/41/13 44/44/10
f 40/40/1 37/37/1 39/39/24 42/42/23
f 42/42/23 39/39/24 38/38/14 41/41/13
f 37/37/1 31/31/1 33/33/25 39/39/24
f 39/39/24 33/33/25 32/32/19 38/38/14
f 52/52/1 46/46/1 48/48/26 54/54/27
f 54/54/27 48/48/26 47/47/18 53/53/28
f 55/55/1 52/52/1 54/54/27 57/57/29
f 57/57/29 54/54/27 53/53/28 56/56/30
f 58/58/1 55/55/1 57/57/29 60/60/31
f 60/60/31 57/57/29 56/56/30 59/59/32
f 49/49/1 58/58/1 60/60/31 51/51/25
f 51/51/25 60/60/31 59/59/32 50/50/19
f 7/7/1 1/1/1 3/3/22 9/9/33
f 9/9/33 3/3/22 2/2/9 8/8/34
f 10/10/1 7/7/1 9/9/33 12/12/35
f 12/12/35 9/9/33 8/8/34 11/11/36
f 13/13/1 10/10/1 12/12/35 15/15/37
f 15/15/37 12/12/35 11/11/36 14/14/38
f 4/4/1 13/13/1 15/15/37 6/6/39
f 6/6/39 15/15/37 14/14/38 5/5/16
f 19/19/1 28/28/1 30/30/40 21/21/26
f 21/21/26 30/30/40 29/29/20 20/20/17
f 28/28/1 25/25/1 27/27/41 30/30/40
f 30/30/40 27/27/41 26/26/6 29/29/20
f 25/25/1 22/22/1 24/24/42 27/27/41
f 27/27/41 24/24/42 23/23/7 26/26/6
f 22/22/1 16/16/1 18/18/39 24/24/42
f 24/24/42 18/18/39 17/17/16 23/23/7
f 1/1/1 34/34/1 36/36/22 3/3/22
f 3/3/22 36/36/22 35/35/9 2/2/9
f 5/5/16 17/17/16 18/18/39 6/6/39
f 6/6/39 18/18/39 16/16/1 4/4/1
f 20/20/17 47/47/18 48/48/26 21/21/26
f 21/21/26 48/48/26 46/46/1 19/19/1
f 50/50/19 32/32/19 33/33/25 51/51/25
f 51/51/25 33/33/25 31/31/1 49/49/1
f 2/2/9 61/61/9 62/62/34 8/8/34
f 11/11/36 67/67/43 64/64/38 14/14/38
f 35/35/9 63/63/9 61/61/9 2/2/9
f 53/53/28 78/78/28 80/80/44 56/56/30
f 56/56/30 80/80/44 79/79/32 59/59/32
f 59/59/32 79/79/32 75/75/19 50/50/19
f 32/32/19 50/50/19 75/75/19 74/74/19
f 47/47/18 71/71/17 78/78/28 53/53/28
f 14/14/38 64/64/38 65/65/16 5/5/16
f 8/8/34 62/62/34 67/67/43 11/11/36
f 34/34/1 1/1/1 7/7/1 10/10/1 13/13/1 4/4/1 16/16/1 22/22/1 25/25/1 28/28/1 19/19/1 46/46/1 52/52/1 55/55/1 58/58/1 49/49/1 31/31/1 37/37/1 40/40/1 43/43/1
f 153/168/1 155/171/1 156/173/1 154/170/1 157/175/1 159/178/1 160/180/1 158/176/1 161/183/1 163/187/1 164/189/1 162/185/1 165/191/1 167/195/1 168/197/1 166/193/1
f 189/220/2 165/192/2 162/186/2 197/229/2
f 196/228/3 200/232/3 161/184/3 158/177/4
f 83/83/1 90/90/1 104/104/1 96/96/1
f 81/81/45 84/84/46 85/85/47 87/87/48
f 82/82/49 86/86/50 85/85/47 84/84/46
f 83/83/1 87/87/48 85/85/47 86/86/50
f 88/88/49 91/91/51 92/92/52 94/94/50
f 89/89/53 93/93/54 92/92/52 91/91/51
f 90/90/1 94/94/50 92/92/52 93/93/54
f 95/95/45 98/98/48 99/99/55 101/101/56
f 96/96/1 100/100/57 99/99/55 98/98/48
f 97/97/58 101/101/56 99/99/55 100/100/57
f 102/102/53 105/105/59 106/106/60 108/108/61
f 103/103/58 107/107/57 106/106/60 105/105/59
f 104/104/1 108/108/61 106/106/60 107/107/57
f 95/95/45 81/81/45 87/87/48 98/98/48
f 98/98/48 87/87/48 83/83/1 96/96/1
f 82/82/49 88/88/49 94/94/50 86/86/50
f 86/86/50 94/94/50 90/90/1 83/83/1
f 89/89/53 102/102/53 108/108/61 93/93/54
f 93/93/54 108/108/61 104/104/1 90/90/1
f 103/103/58 97/97/58 100/100/57 107/107/57
f 107/107/57 100/100/57 96/96/1 104/104/1
f 111/111/1 118/118/1 132/132/1 124/124/1
f 109/109/45 112/112/62 113/113/47 115/115/48
f 110/110/49 114/114/50 113/113/47 112/112/62
f 111/111/1 115/115/48 113/113/47 114/114/50
f 116/116/49 119/119/51 120/120/52 122/122/50
f 117/117/53 121/121/54 120/120/52 119/119/51
f 118/118/1 122/122/50 120/120/52 121/121/54
f 123/123/45 126/126/48 127/127/55 129/129/56
f 124/124/1 128/128/57 127/127/55 126/126/48
f 125/125/58 129/129/56 127/127/55 128/128/57
f 130/130/53 133/133/59 134/134/60 136/136/61
f 131/131/58 135/135/57 134/134/60 133/133/59
f 132/132/1 136/136/61 134/134/60 135/135/57
f 123/123/45 109/109/45 115/115/48 126/126/48
f 126/126/48 115/115/48 111/111/1 124/124/1
f 110/110/49 116/116/49 122/122/50 114/114/50
f 114/114/50 122/122/50 118/118/1 111/111/1
f 117/117/53 130/130/53 136/136/61 121/121/54
f 121/121/54 136/136/61 132/132/1 118/118/1
f 131/131/58 125/125/58 128/128/57 135/135/57
f 135/135/57 128/128/57 124/124/1 132/132/1
f 169/199/63 138/139/63 140/143/64 170/200/64
f 170/200/64 140/143/64 139/141/65 171/201/65
f 171/201/65 139/141/65 137/138/66 172/202/67
f 181/212/2 146/155/2 148/159/68 182/213/68
f 182/213/68 148/159/68 147/157/69 183/214/69
f 183/214/69 147/157/69 145/153/3 184/215/3
f 185/216/63 154/170/63 156/174/64 186/217/64
f 186/217/64 156/174/64 155/172/65 187/218/65
f 187/218/65 155/172/65 153/169/66 188/219/66
f 197/229/2 162/186/2 164/190/68 198/230/68
f 198/230/68 164/190/68 163/188/69 199/231/69
f 199/231/69 163/188/69 161/184/3 200/232/3
f 138/139/63 169/199/63 177/207/63 141/144/63
f 144/150/70 179/209/70 180/211/3 142/146/4
f 143/148/71 178/208/71 179/210/70 144/151/70
f 141/144/63 177/207/63 178/208/71 143/148/71
f 152/167/72 175/205/72 176/206/66 150/163/73
f 151/165/74 174/204/74 175/205/72 152/167/72
f 149/161/2 173/203/2 174/204/74 151/165/74
f 137/138/66 150/163/73 176/206/66 172/202/67
f 160/181/70 195/226/70 196/228/3 158/177/4
f 159/179/71 194/225/71 195/227/70 160/182/70
f 157/175/63 193/224/63 194/225/71 159/179/71
f 168/198/72 191/222/72 192/223/66 166/194/73
f 167/196/74 190/221/74 191/222/72 168/198/72
f 165/192/2 189/220/2 190/221/74 167/196/74
f 153/169/66 166/194/73 192/223/66 188/219/66
f 154/170/63 185/216/63 193/224/63 157/175/63
